<svg width="600" height="400" viewBox="0 0 600 400" fill="none" xmlns="http://www.w3.org/2000/svg">
  <rect width="600" height="400" fill="#F9FAFB"/>
  
  <!-- Trophy -->
  <path d="M300 100H370C370 150 340 180 300 190V100Z" fill="#FCD34D"/>
  <path d="M300 100H230C230 150 260 180 300 190V100Z" fill="#FCD34D"/>
  <rect x="280" y="190" width="40" height="60" fill="#FCD34D"/>
  <rect x="260" y="250" width="80" height="20" rx="5" fill="#FCD34D"/>
  <path d="M300 100H340C350 100 360 90 360 80C360 70 350 60 340 60H260C250 60 240 70 240 80C240 90 250 100 260 100H300Z" fill="#FCD34D"/>
  
  <!-- Confetti -->
  <rect x="100" y="50" width="15" height="15" rx="2" fill="#FB7185" transform="rotate(15 100 50)"/>
  <rect x="150" y="80" width="10" height="10" rx="2" fill="#FBBF24" transform="rotate(30 150 80)"/>
  <rect x="200" y="40" width="12" height="12" rx="2" fill="#A78BFA" transform="rotate(45 200 40)"/>
  <rect x="400" y="70" width="15" height="15" rx="2" fill="#34D399" transform="rotate(60 400 70)"/>
  <rect x="450" y="50" width="10" height="10" rx="2" fill="#60A5FA" transform="rotate(75 450 50)"/>
  <rect x="500" y="90" width="12" height="12" rx="2" fill="#F472B6" transform="rotate(90 500 90)"/>
  
  <rect x="130" y="150" width="15" height="15" rx="2" fill="#A78BFA" transform="rotate(105 130 150)"/>
  <rect x="90" y="200" width="10" height="10" rx="2" fill="#34D399" transform="rotate(120 90 200)"/>
  <rect x="120" y="250" width="12" height="12" rx="2" fill="#60A5FA" transform="rotate(135 120 250)"/>
  <rect x="470" y="180" width="15" height="15" rx="2" fill="#F472B6" transform="rotate(150 470 180)"/>
  <rect x="510" y="230" width="10" height="10" rx="2" fill="#FB7185" transform="rotate(165 510 230)"/>
  <rect x="480" y="280" width="12" height="12" rx="2" fill="#FBBF24" transform="rotate(180 480 280)"/>
  
  <rect x="200" y="330" width="15" height="15" rx="2" fill="#60A5FA" transform="rotate(195 200 330)"/>
  <rect x="250" y="310" width="10" height="10" rx="2" fill="#F472B6" transform="rotate(210 250 310)"/>
  <rect x="300" y="340" width="12" height="12" rx="2" fill="#FB7185" transform="rotate(225 300 340)"/>
  <rect x="350" y="310" width="15" height="15" rx="2" fill="#FBBF24" transform="rotate(240 350 310)"/>
  <rect x="400" y="330" width="10" height="10" rx="2" fill="#A78BFA" transform="rotate(255 400 330)"/>
  
  <!-- Text -->
  <path d="M180 220C180 213.373 185.373 208 192 208H408C414.627 208 420 213.373 420 220V240C420 246.627 414.627 252 408 252H192C185.373 252 180 246.627 180 240V220Z" fill="#F472B6" fill-opacity="0.3"/>
  <path d="M240 230C240 227.791 241.791 226 244 226H356C358.209 226 360 227.791 360 230V230C360 232.209 358.209 234 356 234H244C241.791 234 240 232.209 240 230V230Z" fill="#F472B6"/>
</svg> 