<svg width="600" height="400" viewBox="0 0 600 400" fill="none" xmlns="http://www.w3.org/2000/svg">
  <rect width="600" height="400" fill="#F9FAFB"/>
  <path d="M300 100C344.183 100 380 135.817 380 180C380 224.183 344.183 260 300 260C255.817 260 220 224.183 220 180C220 135.817 255.817 100 300 100Z" fill="#FEE2E2"/>
  <path d="M300 150C322.091 150 340 167.909 340 190C340 212.091 322.091 230 300 230C277.909 230 260 212.091 260 190C260 167.909 277.909 150 300 150Z" fill="#FECACA"/>
  <path d="M300 170C310.493 170 319 178.507 319 189C319 199.493 310.493 208 300 208C289.507 208 281 199.493 281 189C281 178.507 289.507 170 300 170Z" fill="#EF4444"/>
  <rect x="296" y="260" width="8" height="80" rx="4" fill="#EF4444"/>
  <rect x="260" y="300" width="8" height="80" rx="4" transform="rotate(-90 260 300)" fill="#EF4444"/>
</svg> 