<svg width="600" height="400" viewBox="0 0 600 400" fill="none" xmlns="http://www.w3.org/2000/svg">
  <rect width="600" height="400" fill="#F9FAFB"/>
  
  <!-- Message envelope -->
  <rect x="150" y="100" width="300" height="200" rx="10" fill="white" stroke="#CBD5E1" stroke-width="3"/>
  
  <!-- Envelope flap -->
  <path d="M150 100L300 200L450 100" stroke="#CBD5E1" stroke-width="3"/>
  
  <!-- Thank You text -->
  <rect x="220" y="150" width="160" height="100" rx="5" fill="#FEE2E2"/>
  <path d="M240 180H270" stroke="#F43F5E" stroke-width="4" stroke-linecap="round"/>
  <path d="M240 180V200" stroke="#F43F5E" stroke-width="4" stroke-linecap="round"/>
  <path d="M255 200H240" stroke="#F43F5E" stroke-width="4" stroke-linecap="round"/>
  
  <path d="M280 180H310" stroke="#F43F5E" stroke-width="4" stroke-linecap="round"/>
  <path d="M295 180V200" stroke="#F43F5E" stroke-width="4" stroke-linecap="round"/>
  
  <path d="M330 180V200" stroke="#F43F5E" stroke-width="4" stroke-linecap="round"/>
  <path d="M330 180H350" stroke="#F43F5E" stroke-width="4" stroke-linecap="round"/>
  <path d="M330 190H345" stroke="#F43F5E" stroke-width="4" stroke-linecap="round"/>
  <path d="M330 200H350" stroke="#F43F5E" stroke-width="4" stroke-linecap="round"/>
  
  <!-- Heart -->
  <path d="M300 280C300 280 270 250 250 250C230 250 220 270 220 280C220 290 230 310 300 340C370 310 380 290 380 280C380 270 370 250 350 250C330 250 300 280 300 280Z" fill="#F43F5E"/>
  
  <!-- Sparkles -->
  <circle cx="200" cy="220" r="5" fill="#FCD34D"/>
  <circle cx="400" cy="220" r="5" fill="#FCD34D"/>
  <circle cx="230" cy="150" r="5" fill="#FCD34D"/>
  <circle cx="370" cy="150" r="5" fill="#FCD34D"/>
  
  <path d="M150 50L160 60L150 70" stroke="#FCD34D" stroke-width="2"/>
  <path d="M450 50L440 60L450 70" stroke="#FCD34D" stroke-width="2"/>
  <path d="M150 350L160 340L150 330" stroke="#FCD34D" stroke-width="2"/>
  <path d="M450 350L440 340L450 330" stroke="#FCD34D" stroke-width="2"/>
</svg> 