<svg width="600" height="400" viewBox="0 0 600 400" fill="none" xmlns="http://www.w3.org/2000/svg">
  <rect width="600" height="400" fill="#F9FAFB"/>
  
  <!-- Door frame -->
  <rect x="200" y="100" width="200" height="250" rx="5" fill="#D1D5DB"/>
  
  <!-- Open door -->
  <path d="M220 120H380V330H220V120Z" fill="#FEF3C7"/>
  <rect x="220" y="120" width="160" height="210" rx="2" fill="#F59E0B"/>
  <rect x="220" y="120" width="160" height="210" rx="2" fill="#F59E0B"/>
  <path d="M360 120L300 140L220 120L220 330L300 310L380 330L380 120L360 120Z" fill="#F59E0B"/>
  
  <!-- Light from door -->
  <path d="M300 120L220 120L220 330L300 310L380 330L380 120L300 120Z" fill="#FBBF24" fill-opacity="0.5"/>
  <rect x="340" y="190" width="15" height="30" rx="7.5" fill="#FEF3C7"/>
  
  <!-- Welcome mat -->
  <rect x="230" y="340" width="140" height="40" rx="5" fill="#4B5563"/>
  <path d="M260 360H340" stroke="#9CA3AF" stroke-width="4" stroke-linecap="round"/>
  <path d="M250 370H350" stroke="#9CA3AF" stroke-width="4" stroke-linecap="round"/>
  
  <!-- Stars/Sparkles -->
  <path d="M450 140L460 160L480 170L460 180L450 200L440 180L420 170L440 160L450 140Z" fill="#F59E0B" fill-opacity="0.6"/>
  <path d="M150 140L160 160L180 170L160 180L150 200L140 180L120 170L140 160L150 140Z" fill="#F59E0B" fill-opacity="0.6"/>
  <path d="M180 250L190 270L210 280L190 290L180 310L170 290L150 280L170 270L180 250Z" fill="#F59E0B" fill-opacity="0.8"/>
  <path d="M420 250L430 270L450 280L430 290L420 310L410 290L390 280L410 270L420 250Z" fill="#F59E0B" fill-opacity="0.8"/>
</svg> 